<svg xmlns="http://www.w3.org/2000/svg" width="24" height="24" viewBox="0 0 24 24" fill="none" stroke="currentColor" stroke-width="2" stroke-linecap="round" stroke-linejoin="round" class="feather feather-search">
  <path fill="#C2410C" d="M 12,1 C 5.9,1 1,5.9 1,12 c 0,6.1 4.9,11 11,11 6.1,0 11,-4.9 11,-11 C 23,5.9 18.1,1 12,1 Z" />
  <circle cx="11" cy="11" r="8" fill="#FFFBEB"/>
  <path d="M12 3a1 1 0 011 1v.586l1.707 1.707a1 1 0 010 1.414l-1 1a1 1 0 01-1.414 0L11 7.414V5a1 1 0 011-2z" fill="#92400E"/>
  <path d="M8.5 7a3.5 3.5 0 115.262 3.034l1.53 1.53a1 1 0 01-1.414 1.414l-1.53-1.53A3.5 3.5 0 018.5 7zm0 2a1.5 1.5 0 103 0 1.5 1.5 0 00-3 0z" fill="#92400E"/>
</svg> 